<svg xmlns="http://www.w3.org/2000/svg" xmlns:xlink="http://www.w3.org/1999/xlink" width="500" zoomAndPan="magnify" viewBox="0 0 375 374.999991" height="500" preserveAspectRatio="xMidYMid meet" version="1.0"><defs><g/><clipPath id="d65dacc641"><path d="M 90 22.074219 L 301 22.074219 L 301 238 L 90 238 Z M 90 22.074219 " clip-rule="nonzero"/></clipPath></defs><rect x="-37.5" width="450" fill="#ffffff" y="-37.499999" height="449.999989" fill-opacity="1"/><rect x="-37.5" width="450" fill="#ffffff" y="-37.499999" height="449.999989" fill-opacity="1"/><rect x="-37.5" width="450" fill="#03052b" y="-37.499999" height="449.999989" fill-opacity="1"/><g clip-path="url(#d65dacc641)"><path fill="#fcfcfc" d="M 179.515625 24.277344 C 182.601562 22.09375 185.328125 22.460938 188.597656 24.277344 L 216.035156 40.0625 C 216.941406 40.609375 218.578125 40.246094 219.492188 39.882812 L 246.34375 24.277344 C 249.429688 22.460938 251.972656 22.09375 255.070312 24.09375 L 296.304688 47.917969 C 299.210938 49.554688 300.484375 51.738281 300.484375 55.003906 L 300.484375 103.015625 C 300.484375 106.105469 299.390625 108.105469 296.667969 109.742188 L 272.320312 123.75 C 278.136719 128.480469 278.136719 128.480469 278.136719 135.933594 L 278.136719 180.851562 C 278.136719 183.761719 277.042969 185.398438 274.5 186.855469 L 189.65625 235.957031 C 185.664062 238.320312 182.753906 238.320312 178.753906 235.957031 L 93.902344 186.855469 C 91.183594 185.398438 90.089844 183.21875 90.089844 180.308594 L 90.089844 80.285156 C 90.089844 77.378906 91.179688 75.375 93.722656 73.921875 Z M 179.332031 135.933594 C 179.332031 133.933594 178.789062 132.84375 177.152344 131.9375 L 99.539062 87.375 L 99.539062 176.300781 C 99.539062 178.484375 100.269531 179.574219 102.082031 180.667969 L 178.9375 225.007812 Z M 265.816406 180.488281 C 267.628906 179.398438 268.363281 178.488281 268.363281 176.308594 L 268.179688 139.027344 L 232.203125 159.574219 C 227.117188 162.484375 223.667969 160.480469 223.667969 154.664062 L 223.667969 116.472656 C 223.667969 115.5625 223.667969 114.46875 223.484375 113.199219 L 190.78125 132.109375 C 189.144531 133.019531 188.78125 134.292969 188.78125 135.929688 L 188.78125 225.042969 Z M 181.84375 123.753906 C 182.128906 123.976562 182.441406 124.144531 182.785156 124.261719 C 183.128906 124.382812 183.480469 124.441406 183.84375 124.441406 C 184.203125 124.441406 184.554688 124.382812 184.898438 124.261719 C 185.242188 124.144531 185.554688 123.976562 185.839844 123.753906 L 204.734375 112.84375 L 218.542969 104.660156 L 213.816406 101.933594 L 181.839844 83.382812 C 177.847656 81.019531 177.847656 76.65625 181.839844 74.289062 L 198.554688 64.648438 C 200.367188 63.742188 201.277344 62.464844 200.914062 60.46875 C 200.734375 59.558594 200.914062 58.832031 200.914062 57.921875 C 200.371094 53.191406 201.097656 49.1875 206.183594 47.191406 C 206.367188 47.191406 206.546875 46.828125 206.726562 46.464844 L 185.652344 34.28125 C 183.839844 33.1875 182.746094 33.371094 181.113281 34.28125 L 104.625 78.832031 Z M 285.589844 53.191406 C 284.859375 52.648438 284.683594 52.460938 284.496094 52.460938 L 252.339844 33.914062 C 251.226562 33.507812 250.136719 33.566406 249.070312 34.09375 L 220.546875 50.460938 L 216.183594 53.007812 C 216.910156 53.371094 217.089844 53.550781 217.273438 53.734375 L 249.429688 72.285156 C 250.160156 72.648438 251.792969 72.464844 252.699219 72.101562 L 266.507812 64.285156 L 285.582031 53.191406 Z M 289.046875 102.65625 C 289.953125 102.113281 290.5 100.65625 290.5 99.566406 C 290.679688 87.929688 290.5 76.289062 290.5 64.464844 C 290.5 63.734375 290.316406 63.011719 290.316406 62.28125 L 289.410156 62.28125 L 257.253906 81.011719 C 256.347656 81.554688 255.800781 83.015625 255.800781 84.101562 L 255.800781 121.75 Z M 211.0625 61.738281 L 211.0625 86.652344 C 211.0625 88.464844 211.789062 89.5625 213.242188 90.289062 L 230.324219 100.109375 C 232.6875 101.386719 233.59375 103.199219 233.59375 105.746094 L 233.59375 113.019531 C 233.59375 113.75 233.773438 114.835938 234.320312 115.203125 C 237.957031 117.570312 241.773438 119.570312 245.765625 121.933594 C 245.945312 121.027344 246.128906 120.65625 246.128906 120.296875 L 246.128906 83.5625 C 246.128906 82.65625 245.222656 81.378906 244.316406 80.832031 Z M 233.769531 126.300781 L 233.769531 147.578125 L 262.839844 130.664062 C 262.660156 130.300781 262.480469 129.933594 262.296875 129.757812 C 261.570312 129.9375 260.84375 130.300781 260.296875 130.484375 C 258.296875 131.578125 256.304688 132.667969 254.484375 133.945312 C 252.121094 135.582031 249.757812 135.582031 247.214844 134.125 C 242.851562 131.398438 238.3125 129.035156 233.769531 126.304688 Z M 193.621094 78.835938 C 196.34375 80.472656 198.527344 81.746094 200.890625 83.015625 L 200.890625 74.472656 C 198.527344 76.109375 196.347656 77.378906 193.621094 78.839844 Z M 193.621094 78.835938 " fill-opacity="1" fill-rule="nonzero"/></g><g fill="#fcfcfc" fill-opacity="1"><g transform="translate(167.303014, 350.153742)"><g><path d="M 5.046875 -5.472656 L 3.699219 -5.742188 C 2.539062 -5.96875 2.027344 -6.535156 2.027344 -7.34375 C 2.027344 -8.179688 2.664062 -9.046875 4.238281 -9.046875 C 5.726562 -9.046875 6.378906 -8.324219 6.550781 -7.414062 L 7.753906 -7.414062 C 7.558594 -9.019531 6.351562 -10.050781 4.238281 -10.050781 C 2.011719 -10.050781 0.808594 -8.875 0.808594 -7.371094 C 0.808594 -5.882812 1.816406 -5.117188 3.472656 -4.777344 L 4.921875 -4.496094 C 5.984375 -4.28125 6.804688 -3.855469 6.804688 -2.722656 C 6.804688 -1.660156 5.96875 -0.878906 4.351562 -0.878906 C 2.664062 -0.878906 2.011719 -1.828125 1.828125 -2.890625 L 0.609375 -2.890625 C 0.78125 -1.132812 1.984375 0.128906 4.351562 0.128906 C 6.621094 0.128906 8.023438 -0.964844 8.023438 -2.707031 C 8.023438 -4.394531 6.917969 -5.089844 5.046875 -5.472656 Z M 5.046875 -5.472656 "/></g></g></g><g fill="#fcfcfc" fill-opacity="1"><g transform="translate(178.063978, 350.153742)"><g><path d="M 2 -1.050781 L 2 -4.621094 L 6.550781 -4.621094 L 6.550781 -5.585938 L 2 -5.585938 L 2 -8.890625 L 7.257812 -8.890625 L 7.257812 -9.925781 L 0.824219 -9.925781 L 0.824219 0 L 7.402344 0 L 7.402344 -1.050781 Z M 2 -1.050781 "/></g></g></g><g fill="#fcfcfc" fill-opacity="1"><g transform="translate(188.016937, 350.153742)"><g><path d="M 8.097656 -1.660156 L 8.097656 -2.480469 C 8.097656 -3.644531 7.640625 -4.28125 6.507812 -4.609375 C 7.488281 -5.046875 8.097656 -5.871094 8.097656 -7.089844 C 8.097656 -8.804688 7.019531 -9.925781 4.707031 -9.925781 L 0.824219 -9.925781 L 0.824219 0 L 2 0 L 2 -4.054688 L 5.148438 -4.054688 C 6.082031 -4.054688 6.917969 -3.699219 6.917969 -2.453125 L 6.917969 -1.660156 C 6.917969 -0.738281 7.003906 -0.269531 7.203125 0 L 8.378906 0 C 8.179688 -0.269531 8.097656 -0.738281 8.097656 -1.660156 Z M 4.878906 -5.019531 L 2 -5.019531 L 2 -8.890625 L 4.691406 -8.890625 C 6.152344 -8.890625 6.890625 -8.253906 6.890625 -6.988281 C 6.890625 -5.714844 6.109375 -5.019531 4.878906 -5.019531 Z M 4.878906 -5.019531 "/></g></g></g><g fill="#fcfcfc" fill-opacity="1"><g transform="translate(198.99054, 350.153742)"><g><path d="M 7.984375 -9.925781 L 4.792969 -1.546875 L 1.589844 -9.925781 L 0.324219 -9.925781 L 4.269531 0 L 5.304688 0 L 9.257812 -9.925781 Z M 7.984375 -9.925781 "/></g></g></g><g fill="#fcfcfc" fill-opacity="1"><g transform="translate(210.687095, 350.153742)"><g><path d="M 2 0 L 2 -9.925781 L 0.824219 -9.925781 L 0.824219 0 Z M 2 0 "/></g></g></g><g fill="#fcfcfc" fill-opacity="1"><g transform="translate(215.63607, 350.153742)"><g><path d="M 4.992188 -0.921875 C 3.148438 -0.921875 1.828125 -2.269531 1.828125 -4.960938 C 1.828125 -7.671875 3.148438 -9.019531 4.992188 -9.019531 C 6.394531 -9.019531 7.21875 -8.40625 7.585938 -7.414062 L 8.789062 -7.414062 C 8.421875 -9.117188 6.90625 -10.050781 4.976562 -10.050781 C 2.46875 -10.050781 0.609375 -8.367188 0.609375 -4.960938 C 0.609375 -1.574219 2.46875 0.128906 4.976562 0.128906 C 6.917969 0.128906 8.449219 -0.824219 8.820312 -2.523438 L 7.628906 -2.523438 C 7.246094 -1.53125 6.410156 -0.921875 4.992188 -0.921875 Z M 4.992188 -0.921875 "/></g></g></g><g fill="#fcfcfc" fill-opacity="1"><g transform="translate(227.006587, 350.153742)"><g><path d="M 2 0 L 2 -9.925781 L 0.824219 -9.925781 L 0.824219 0 Z M 2 0 "/></g></g></g><g fill="#fcfcfc" fill-opacity="1"><g transform="translate(231.955562, 350.153742)"><g><path d="M 5.074219 -10.050781 C 2.453125 -10.050781 0.609375 -8.324219 0.609375 -4.960938 C 0.609375 -1.617188 2.453125 0.128906 5.074219 0.128906 C 7.683594 0.128906 9.542969 -1.617188 9.542969 -4.960938 C 9.542969 -8.324219 7.683594 -10.050781 5.074219 -10.050781 Z M 5.074219 -0.921875 C 3.132812 -0.921875 1.828125 -2.253906 1.828125 -4.960938 C 1.828125 -7.683594 3.132812 -9.019531 5.074219 -9.019531 C 7.019531 -9.019531 8.308594 -7.683594 8.308594 -4.960938 C 8.308594 -2.253906 7.019531 -0.921875 5.074219 -0.921875 Z M 5.074219 -0.921875 "/></g></g></g><g fill="#fcfcfc" fill-opacity="1"><g transform="translate(244.219144, 350.153742)"><g><path d="M 5.046875 -5.472656 L 3.699219 -5.742188 C 2.539062 -5.96875 2.027344 -6.535156 2.027344 -7.34375 C 2.027344 -8.179688 2.664062 -9.046875 4.238281 -9.046875 C 5.726562 -9.046875 6.378906 -8.324219 6.550781 -7.414062 L 7.753906 -7.414062 C 7.558594 -9.019531 6.351562 -10.050781 4.238281 -10.050781 C 2.011719 -10.050781 0.808594 -8.875 0.808594 -7.371094 C 0.808594 -5.882812 1.816406 -5.117188 3.472656 -4.777344 L 4.921875 -4.496094 C 5.984375 -4.28125 6.804688 -3.855469 6.804688 -2.722656 C 6.804688 -1.660156 5.96875 -0.878906 4.351562 -0.878906 C 2.664062 -0.878906 2.011719 -1.828125 1.828125 -2.890625 L 0.609375 -2.890625 C 0.78125 -1.132812 1.984375 0.128906 4.351562 0.128906 C 6.621094 0.128906 8.023438 -0.964844 8.023438 -2.707031 C 8.023438 -4.394531 6.917969 -5.089844 5.046875 -5.472656 Z M 5.046875 -5.472656 "/></g></g></g><g fill="#fcfcfc" fill-opacity="1"><g transform="translate(254.980109, 350.153742)"><g/></g></g><g fill="#fcfcfc" fill-opacity="1"><g transform="translate(260.97807, 350.153742)"><g><path d="M 2 -1.050781 L 2 -9.925781 L 0.824219 -9.925781 L 0.824219 0 L 7.074219 0 L 7.074219 -1.050781 Z M 2 -1.050781 "/></g></g></g><g fill="#fcfcfc" fill-opacity="1"><g transform="translate(270.633333, 350.153742)"><g><path d="M 2 -1.050781 L 2 -4.621094 L 6.550781 -4.621094 L 6.550781 -5.585938 L 2 -5.585938 L 2 -8.890625 L 7.257812 -8.890625 L 7.257812 -9.925781 L 0.824219 -9.925781 L 0.824219 0 L 7.402344 0 L 7.402344 -1.050781 Z M 2 -1.050781 "/></g></g></g><g fill="#fcfcfc" fill-opacity="1"><g transform="translate(280.586286, 350.153742)"><g><path d="M 9.117188 -5.089844 L 5.472656 -5.089844 L 5.472656 -4.125 L 8.023438 -4.125 C 7.984375 -1.957031 6.949219 -0.921875 5.035156 -0.921875 C 3.132812 -0.921875 1.828125 -2.269531 1.828125 -4.960938 C 1.828125 -7.671875 3.121094 -9.019531 4.992188 -9.019531 C 6.339844 -9.019531 7.089844 -8.449219 7.488281 -7.585938 L 8.675781 -7.585938 C 8.265625 -9.160156 6.863281 -10.050781 4.976562 -10.050781 C 2.4375 -10.050781 0.609375 -8.367188 0.609375 -4.960938 C 0.609375 -1.558594 2.4375 0.128906 5.035156 0.128906 C 7.753906 0.128906 9.117188 -1.472656 9.117188 -4.523438 Z M 9.117188 -5.089844 "/></g></g></g><g fill="#fcfcfc" fill-opacity="1"><g transform="translate(292.495461, 350.153742)"><g><path d="M 8.054688 0 L 9.328125 0 L 5.375 -9.925781 L 4.339844 -9.925781 L 0.398438 0 L 1.671875 0 L 2.636719 -2.539062 L 7.089844 -2.539062 Z M 2.976562 -3.445312 L 4.863281 -8.394531 L 6.75 -3.445312 Z M 2.976562 -3.445312 "/></g></g></g><g fill="#fcfcfc" fill-opacity="1"><g transform="translate(304.33377, 350.153742)"><g><path d="M 2 -1.050781 L 2 -9.925781 L 0.824219 -9.925781 L 0.824219 0 L 7.074219 0 L 7.074219 -1.050781 Z M 2 -1.050781 "/></g></g></g><g fill="#fcfcfc" fill-opacity="1"><g transform="translate(313.989027, 350.153742)"><g><path d="M 2 -1.050781 L 2 -4.621094 L 6.550781 -4.621094 L 6.550781 -5.585938 L 2 -5.585938 L 2 -8.890625 L 7.257812 -8.890625 L 7.257812 -9.925781 L 0.824219 -9.925781 L 0.824219 0 L 7.402344 0 L 7.402344 -1.050781 Z M 2 -1.050781 "/></g></g></g><g fill="#fcfcfc" fill-opacity="1"><g transform="translate(323.94198, 350.153742)"><g><path d="M 5.046875 -5.472656 L 3.699219 -5.742188 C 2.539062 -5.96875 2.027344 -6.535156 2.027344 -7.34375 C 2.027344 -8.179688 2.664062 -9.046875 4.238281 -9.046875 C 5.726562 -9.046875 6.378906 -8.324219 6.550781 -7.414062 L 7.753906 -7.414062 C 7.558594 -9.019531 6.351562 -10.050781 4.238281 -10.050781 C 2.011719 -10.050781 0.808594 -8.875 0.808594 -7.371094 C 0.808594 -5.882812 1.816406 -5.117188 3.472656 -4.777344 L 4.921875 -4.496094 C 5.984375 -4.28125 6.804688 -3.855469 6.804688 -2.722656 C 6.804688 -1.660156 5.96875 -0.878906 4.351562 -0.878906 C 2.664062 -0.878906 2.011719 -1.828125 1.828125 -2.890625 L 0.609375 -2.890625 C 0.78125 -1.132812 1.984375 0.128906 4.351562 0.128906 C 6.621094 0.128906 8.023438 -0.964844 8.023438 -2.707031 C 8.023438 -4.394531 6.917969 -5.089844 5.046875 -5.472656 Z M 5.046875 -5.472656 "/></g></g></g><g fill="#fcfcfc" fill-opacity="1"><g transform="translate(24.081206, 308.086834)"><g><path d="M 38.398438 -7.515625 L 13.914062 -7.515625 L 13.914062 -52.089844 L 6.398438 -52.089844 L 6.398438 0 L 38.398438 0 Z M 38.398438 -7.515625 "/></g></g></g><g fill="#fcfcfc" fill-opacity="1"><g transform="translate(62.851505, 308.086834)"><g><path d="M 25.449219 -55.738281 L 20.09375 -47.773438 L 26.566406 -47.773438 L 34.976562 -55.738281 Z M 45.09375 -21.878906 C 44.277344 -34.527344 34.453125 -40.855469 24.484375 -40.855469 C 13.839844 -40.855469 3.570312 -33.933594 3.570312 -20.09375 C 3.570312 -6.25 13.988281 0.746094 24.332031 0.746094 C 32.59375 0.746094 40.855469 -3.644531 43.90625 -12.425781 L 36.390625 -12.425781 C 34.007812 -7.886719 29.394531 -5.730469 24.410156 -5.730469 C 18.378906 -5.730469 10.863281 -10.492188 10.863281 -18.378906 L 44.945312 -18.378906 C 45.09375 -19.050781 45.171875 -19.792969 45.171875 -20.613281 C 45.171875 -21.058594 45.171875 -21.429688 45.09375 -21.878906 Z M 37.429688 -24.410156 L 11.164062 -24.410156 C 12.652344 -31.550781 18.605469 -34.453125 24.484375 -34.453125 C 30.285156 -34.453125 36.015625 -31.625 37.429688 -24.410156 Z M 37.429688 -24.410156 "/></g></g></g><g fill="#fcfcfc" fill-opacity="1"><g transform="translate(111.965504, 308.086834)"><g><path d="M 45.914062 -1.488281 L 45.914062 -40.257812 L 38.695312 -40.257812 L 38.695312 -34.902344 C 35.71875 -39.292969 30.0625 -40.929688 25.078125 -40.929688 C 11.085938 -40.929688 3.722656 -31.03125 3.722656 -20.019531 C 3.722656 -9.078125 11.535156 -0.0742188 25.078125 -0.0742188 C 30.0625 -0.0742188 35.125 -1.117188 38.621094 -5.730469 L 38.621094 -1.488281 C 38.621094 6.398438 31.328125 9.375 24.78125 9.375 C 19.570312 9.375 12.875 7.738281 12.875 2.679688 L 5.65625 2.679688 C 5.65625 11.832031 15.105469 15.851562 25.226562 15.851562 C 35.199219 15.851562 45.914062 11.011719 45.914062 -1.488281 Z M 25.003906 -6.472656 C 16.148438 -6.472656 11.085938 -12.949219 11.011719 -20.019531 C 11.011719 -27.234375 16.148438 -34.527344 25.152344 -34.527344 C 34.082031 -34.527344 38.621094 -28.425781 38.621094 -21.132812 C 38.621094 -13.691406 34.082031 -6.472656 25.003906 -6.472656 Z M 25.003906 -6.472656 "/></g></g></g><g fill="#fcfcfc" fill-opacity="1"><g transform="translate(163.609623, 308.086834)"><g><path d="M 35.273438 -5.285156 L 35.273438 0 L 42.195312 0 L 42.195312 -40.628906 L 34.902344 -40.628906 L 34.902344 -18.378906 C 34.902344 -11.3125 30.734375 -5.878906 23.070312 -5.878906 C 14.289062 -5.878906 12.351562 -11.085938 12.351562 -18.605469 L 12.351562 -40.628906 L 5.058594 -40.628906 L 5.058594 -18.605469 C 5.058594 -7.070312 10.34375 0.59375 22.546875 0.59375 C 27.757812 0.59375 32.296875 -0.894531 35.273438 -5.285156 Z M 35.273438 -5.285156 "/></g></g></g><g fill="#fcfcfc" fill-opacity="1"><g transform="translate(211.53298, 308.086834)"><g><path d="M 5.132812 -50.601562 C 5.132812 -47.773438 7.441406 -46.359375 9.675781 -46.359375 C 11.980469 -46.359375 14.214844 -47.773438 14.214844 -50.601562 C 14.214844 -53.429688 11.980469 -54.769531 9.75 -54.769531 C 7.441406 -54.769531 5.132812 -53.355469 5.132812 -50.601562 Z M 6.027344 -40.707031 L 13.320312 -40.707031 L 13.320312 0 L 6.027344 0 Z M 6.027344 -40.707031 "/></g></g></g><g fill="#fcfcfc" fill-opacity="1"><g transform="translate(231.550655, 308.086834)"><g><path d="M 6.398438 0 L 13.914062 0 L 13.914062 -36.6875 L 27.535156 -16.445312 L 31.773438 -16.445312 L 45.394531 -36.6875 L 45.394531 0 L 52.835938 0 L 52.835938 -52.089844 L 46.882812 -52.089844 L 29.691406 -26.789062 L 12.5 -52.089844 L 6.398438 -52.089844 Z M 6.398438 0 "/></g></g></g><g fill="#fcfcfc" fill-opacity="1"><g transform="translate(290.710711, 308.086834)"><g><path d="M 47.253906 -20.09375 C 47.253906 -33.933594 36.539062 -40.929688 25.671875 -40.929688 C 14.734375 -40.929688 3.871094 -34.007812 3.871094 -20.09375 C 3.871094 -6.25 14.660156 0.746094 25.449219 0.746094 C 36.390625 0.746094 47.253906 -6.175781 47.253906 -20.09375 Z M 11.164062 -20.09375 C 11.164062 -29.691406 18.378906 -34.453125 25.671875 -34.453125 C 32.816406 -34.453125 40.035156 -29.617188 40.035156 -20.09375 C 40.035156 -10.640625 32.816406 -5.804688 25.597656 -5.804688 C 18.378906 -5.804688 11.164062 -10.566406 11.164062 -20.09375 Z M 11.164062 -20.09375 "/></g></g></g></svg>